# xmcd
#
# Track frame offsets: 
#        150
#        10800
#        26250
#        37238
#        51706
#        71356
#        82564
#
# Disc length: 1200 seconds
#
# Revision: 0
# Processed by: cddbd v1.5.2PL0 Copyright (c) Steve Scherf et al.
# Submitted via: ExactAudioCopy v0.99pb5
#
DISCID=4e04ae07
DTITLE=Bible Belt Sinners - Bible Belt Sinners
DYEAR=2010
DGENRE=Blues
TTITLE0=Wrong Kind Of Guy
TTITLE1=Fool
TTITLE2=How Could You
TTITLE3=Hot Headed
TTITLE4=Boogie Man
TTITLE5=Brand New Cadillac
TTITLE6=Tiger By The Tail
EXTD=
EXTT0=
EXTT1=
EXTT2=
EXTT3=
EXTT4=
EXTT5=
EXTT6=
PLAYORDER=
